. 
  
http://www.torrenting.com/        :     Greatest Movie Tracker on The Net!!!
 
http://www.Torrenting.com          :     Once & For all ;)


               www . Torrenting . Com 

(((((((((((((= Enjoy No RAR releases =))))))))))))))))))))


...................................NFO:....................................

.Another dvdrip bought to you by MRFIXIT enjoy!!
[b][size=4][color=blue]Baby boy[/color][/size][/b]
[IMG]http://i1085.photobucket.com/albums/j439/ifooku/M.jpg[/IMG]
General
Complete name                    : C:\Baby Boy-Dvdrip-Xvid-MRFIXIT.avi
Format                           : AVI
Format/Info                      : Audio Video Interleave
Format profile                   : OpenDML
File size                        : 1.61 GiB
Duration                         : 2h 4mn
Overall bit rate                 : 1 850 Kbps
Writing application              : MEncoder version Beta 4.4.5 building on 20110111
Writing library                  : [= DigiArty videodll! =]
Video
ID                               : 0
Format                           : MPEG-4 Visual
Codec ID                         : XVID
Codec ID/Hint                    : XviD
Duration                         : 2h 4mn
Bit rate                         : 65.2 Kbps
Width                            : 720 pixels
Height                           : 404 pixels
Display aspect ratio             : 16:9
Frame rate                       : 29.970 fps
Color space                      : YUV
Chroma subsampling               : 4:2:0
Compression mode                 : Lossy
Bits/(Pixel*Frame)               : 0.007
Stream size                      : 58.0 MiB (4%)

Audio
ID                               : 1
Format                           : MPEG Audio
Codec ID                         : 55
Codec ID/Hint                    : MP3
Duration                         : 2h 4mn
Bit rate                         : 128 Kbps
Channel(s)                       : 2 channels
Sampling rate                    : 48.0 KHz
Compression mode                 : Lossy
Stream size                      : 114 MiB (7%)
Alignment                        : Aligned on interleaves

This is the story of Jody, an unemployed young black man, who's been living with his mother for several years, even though he's got a child of his own. Romantically, he's having relationships with two women: the mother, Yvette of his son, and a new interest. 
[IMG]http://i1085.photobucket.com/albums/j439/ifooku/1-45.png[/IMG]
[IMG]http://i1085.photobucket.com/albums/j439/ifooku/2-41.png[/IMG]
[IMG]http://i1085.photobucket.com/albums/j439/ifooku/3-38.png[/IMG]
[IMG]http://i1085.photobucket.com/albums/j439/ifooku/4-38.png[/IMG]
[IMG]http://i1085.photobucket.com/albums/j439/ifooku/5-30.png[/IMG]
[IMG]http://i1085.photobucket.com/albums/j439/ifooku/6-14.png[/IMG]

Greetz to all p2p groups past and present......and on a special note no love lost i shed a tear!!